<svg version="1" xmlns="http://www.w3.org/2000/svg" width="384" height="384" viewBox="0 0 288.000000 288.000000"><path d="M169.2 3.4c1.6.6 4.4 2.7 6.4 4.6 3.4 3.3 3.5 3.7 2.9 8.5-1.5 11.8-1.4 11.6-13.2 17.2-6 2.8-12.7 5.8-15 6.7L146 42v-3.6c0-3.2-.2-3.5-1.6-2.3-.9.7-2 2.2-2.4 3.4-.8 1.7-.9 1.7-.9.2-.1-1 1.3-4.5 3-7.8 1.6-3.4 2.5-5.8 1.9-5.4-1.8 1.1-7 12.3-7 15.1 0 2.1.4 2.5 2 2.1 1.5-.4 2 0 2 1.4 0 2.4 1.6 2.4 5.5.1 6.1-3.7 6.3-3.6 4.3 2.2-.9 2.8-1.7 6-1.8 7.2 0 1.3-1.2 2.6-3.2 3.6l-3.3 1.6 4.8.7c2.6.4 5.6.5 6.7.2 1.1-.3 2-.1 2 .4s.5.9 1.1.9c.5 0 .8-.4.5-.9-.4-.5 1-.5 3.2 0 4.8 1.1 5.4 1.1 4.7-.1-.3-.6-1.6-1-2.8-1.1-2.1 0-2.1-.1-.2-.8 1.6-.7 1.2-1-2.3-1.6-3.8-.6-4.1-.9-2.6-1.9 1.1-.8 1.4-1.8.9-2.6-.5-.9-.4-1.1.3-.6.7.4 1.2 1.5 1.3 2.4 0 .9.5.3 1-1.3 1.1-3.7.1-7.1-1.1-4-.5 1.2-.6-.2-.3-3.3.4-3.7.2-5.6-.6-6.1-.7-.5 1.6-2 6-4 3.9-1.8 7.4-3 7.6-2.7.3.3-.4 3.7-1.6 7.5l-2.2 7.1 3.5 7.4c1.9 4.1 4.8 9.5 6.5 12 1.7 2.4 3.1 5.6 3.1 7.1 0 5.6-5 11.5-9.7 11.5-2.1 0-2.3-.5-2.3-4.5s-.6-5.1-4.2-9.2l-4.3-4.6-16.3.6-16.3.5-11.7-5.8c-13.3-6.6-18.4-7.3-20.8-2.9-.7 1.3-1.3 3.1-1.3 3.9 0 .8.9-.1 1.9-2l2-3.5-.6 3c-.4 1.6-1.8 6.5-3.1 10.9-1.5 4.6-2.2 8.8-1.8 10.3.5 2 .3 2.4-1.2 1.9-3.6-1.1-13.9-2.4-16.6-2.1-4.1.5-5-2.2-4.8-14.9.2-13.3 1.6-16.4 8.6-19 3.2-1.3 7.1-4.5 14.5-12.3 5.5-5.7 10-11.2 10-12.1 0-3.4 2.1-9.2 3.3-9.2.7 0 2.9 3.6 4.9 8 2 4.4 3.3 8 2.8 8-1 0-4 7.4-4 10.3-.1 2.2-.1 2.2-1.5-.3l-1.4-2.5-.1 3.5c0 2 .6 4.2 1.2 4.8 1 1 1 1.5-.1 2.1-1 .7-.8 1 .9 1.6 1.3.4 1.8 1 1.2 1.4-.6.3.7 1.6 2.9 2.8 2.2 1.2 3.6 1.7 3.2 1.1-.4-.8 0-.9 1.2-.4 1.7.6 1.8.5.3-1.1-1-1.2-1.3-2.5-.8-3.8.5-1.1.9-4.3 1-7l.1-5 2.7 3.4 2.8 3.3 1.7-2.6c1-1.5 2.3-2.3 3.2-2 1.4.6 1.9-.5 2.8-6.6.3-1.4.5-.3.6 2.5.3 10.4 1.6 6.8 1.7-4.5V20.2l-1.8 5.1c-1 2.8-1.8 6.4-1.8 8 0 1.5-.4 2.6-.9 2.3-.5-.3-1.1.4-1.4 1.5-.4 1.5-1.2 2-2.9 1.7-2.7-.4-7.4-7.7-11.6-18.1-2-5-3.3-6.9-5-7.4-2-.5-2.2-1-1.7-3.2.4-1.4 1.6-3.7 2.8-5l2.2-2.3-2.5.7c-21.5 6.3-32.5 11.1-46.2 20-10.2 6.6-9.3 4.3-10.6 29-1.1 19.5-2.4 23.4-10.5 31.3-4.3 4.3-4.5 4.3-7.3 2.9-1.6-.8-4.1-1.7-5.6-2.1l-2.7-.6 1.4 3.7c.7 2.1 2.5 6.7 4 10.3 2.2 5.3 2.6 7.3 2 11.4-.9 7-1.9 8.3-6.7 9.1-9.3 1.6-23.8 9.9-27.8 15.9-4.4 6.8-.2 43.3 6.6 56.8 1.4 2.7 3 4.8 3.7 4.8.6 0 2.3.9 3.7 2 1.4 1.1 3.3 2 4.2 2 1 0 2.7 1.4 4 3 3.2 4.3 12.4 12 11.4 9.5-.4-1.1-1-3.5-1.3-5.2-.4-2.6-.2-3.3 1-3.3 2.3 0 2.4.5 3.2 11.6l.7 10.1-4.6 2.7c-2.5 1.5-4.6 3.1-4.6 3.7 0 .5 3.3 4.6 7.3 9.1 13.8 15.5 32.8 28.9 52.1 36.8 9.4 3.9 24.6 8.3 25.4 7.5.3-.2-.1-3.5-.8-7.2-1-5.3-2-7.5-4.4-9.9-1.7-1.7-3.8-3.3-4.6-3.6-1.1-.4-.6-1.5 2.3-4.6 3.2-3.6 3.7-4.9 3.7-9 0-5.1-.9-9.2-1.9-9.2-.4 0-1.5 1.6-2.5 3.5-1.8 3.2-2.3 3.5-6.7 3.5-7 0-9.6-1.3-10.5-5.2-1.2-5-.5-7.6 3.1-12.7 5.1-7.2 8.6-14.9 8.8-19.5l.2-4.1 7.8-1.7c4.3-.9 11.6-3.4 16.4-5.4 8.1-3.5 8.8-3.6 13.5-2.5 2.7.6 7.8 1.1 11.4 1.1 3.5 0 6.4.1 6.4.2 0 .2-.7 2.5-1.5 5.2-2.1 6.9-1.9 8.4.8 4.5 1.2-1.8 4.2-4.7 6.5-6.4 4.2-2.9 4.7-3 17.4-3.3 17.6-.5 17.8-.4 17.8 5.8 0 5.4 1.7 7.8 7.1 10 2.9 1.2 3.9 4.3 1.9 5.5-2.3 1.4 1.9 18.5 7.1 28.7 1.6 3.2 4.1 6.5 5.5 7.5 2.2 1.4 2.5 2.2 2.2 5.5-.2 2.1-.2 3.8.1 3.8.2 0 3.8-2.6 8-5.7 10-7.4 22.4-19.9 29.6-29.7l5.8-7.9-2.9-2.3c-1.6-1.3-5.3-3.4-8.3-4.6l-5.4-2.1 4.5-2.3c5.1-2.6 7.2-4.8 6.5-6.7-.3-.9.2-1.3 1.6-1.2 2.5.2 10.8-2.7 14.2-4.9 2.6-1.7 5.7-9.1 8.8-21.6 1.9-7.4 2.2-11.4 2.2-30.2 0-25 .1-24.6-8.7-26-8.6-1.4-17.9-2.2-24-2.2-3.6 0-5.8-.4-5.8-1.1 0-.6 1.4-3.3 3-5.9 4.1-6.4 11-20.3 15-30.3l3.3-8.2-5.1-7.8c-2.8-4.3-7.1-10-9.4-12.7l-4.3-4.8-.1 5.7c0 3.2.3 4.9.6 3.9.8-2.2 2 13.8 1.3 16.6-.3 1.1-1 1.7-1.6 1.3-.6-.3-.7-.1-.3.6.9 1.4-.2 5.3-1.4 4.6-.4-.3-.6.4-.3 1.5.7 2.5-.4 2.5-4 .1-2.2-1.4-4.2-1.8-8.5-1.4-8.2.5-8.5.1-5.9-8.7 1.1-4.1 2.5-7.7 2.9-7.8.5-.2.6-.7.3-1.2-.3-.4 0-3.4.7-6.5 1-5.3 1.2-5.6 2.6-3.9 1.4 1.8 1.4 1.8.7-.1-.4-1.1-1.1-4-1.6-6.5s-1.8-7.3-3-10.7c-2-6-2.2-6.3-10.7-11.8-10.4-6.8-20.7-11.8-32.2-15.7-13-4.4-27.9-7.6-20.8-4.4zM119 54.6c0 .2-.9 0-2-.6s-2-1.3-2-1.6c0-.2.9 0 2 .6s2 1.3 2 1.6zm-7.4 9c1.2 1.7 2 2.2 2.7 1.5 1.7-1.7 4.5-1.3 6.7.9 1.2 1.2 2.5 1.8 3 1.5.5-.3 2.8.4 5.1 1.6 3.6 1.8 5.2 2 10.2 1.4 4.1-.4 6.2-.3 6.7.5.5.9 1.6.8 3.9-.5 3.9-2 6.9-1.2 7.7 2.1.7 2.8.7 2.8 4.5.8 2.8-1.4 3.2-1.4 4.9.1 1.4 1.3 1.6 2.3.9 4.7-1.4 5-3.7 6.8-8.6 6.8-2.5 0-4.3-.5-4.3-1.1 0-.8-.4-.8-1.2-.1-1.4 1.1-13.5 1.6-30.3 1.3-5.5-.1-11.2.2-12.7.8-2 .7-2.8.7-3.1-.2-.3-.8-1.3-.4-3 1.2-2.6 2.4-4.7 2.2-4.7-.5 0-.8 1.8-3.4 4.1-5.9 3.4-3.7 3.9-4.7 3-6.4-2.1-3.9-.8-13.1 1.9-13.1.5 0 1.7 1.1 2.6 2.6zM85.9 91.1l3.1 1.1v15.5l-4.9-1c-6.5-1.4-13.4 1.1-15.7 5.6-2.4 4.5-1.4 11.5 2.1 14.4 3.6 3.2 10.5 3 10.5-.3 0-1-1.3-1.4-4.5-1.4H72v-12h22.8l.8 11.2.7 11.3 5.5-21.6 5.4-21.6 9.6-.6c5.3-.4 9.9-.3 10.3.1.3.4 3.7 10.6 7.5 22.6l6.9 22 .3-22.2.2-22.2h18.8l2.2 7.2c1.1 4 2.7 9 3.3 11.2l1.3 3.8 4.8-12.1 4.8-12.1h19.9l-.7 6.2c-.4 3.5-1.7 14.8-2.8 25.3l-2.1 19-7.7.3-7.8.3-.1-11.3-.1-11.3-2.9 8.6c-2.6 7.6-3.3 8.8-5.7 9.2-3.6.7-4.6-.5-6.8-8.8l-1.9-7-.3 9.1c-.3 10.5-.2 10.4-10.4 10.4-4.3 0-5.8-.4-5.8-1.4 0-1-.9-1.2-4.2-.6-2.4.5-6.3 1-8.7 1.1-4.3.3-4.5.2-5.6-3.1-1-3-1.6-3.5-4.8-3.8-3.6-.3-3.7-.2-4.3 3.7l-.6 4-4.7-.5c-2.5-.3-6.3-.7-8.3-.9-2.8-.4-4.6.1-7.4 2-2 1.4-4.6 2.5-5.8 2.5-1.8 0-1.7.3.9 1.9 9.9 6 12.4 17.7 5.5 25.1l-2.9 3.1 4 6.1c2.1 3.4 3.7 6.3 3.5 6.6-.3.2-3.4 1-7.1 1.7l-6.5 1.2-1.9-4.3c-1.1-2.3-2.2-5.2-2.6-6.3-.3-1.2-1.5-2.1-2.6-2.1-1.7 0-1.9.7-1.9 6v6H62.3l-1.2-19.3c-.7-10.5-1.4-20.2-1.7-21.4-.3-1.8.1-2.4 2.2-2.9 2.4-.6 2.5-.8.8-1.7-1.1-.5-3.8-2.8-6.2-5-13.5-13-9.5-38.2 7.2-45.8 4.7-2.1 17.3-2.6 22.5-.8zm149.7 7.1l-1.1 7.3-8.1.3c-7.8.3-8.2.4-8.7 2.7-.4 2.4-.3 2.5 5.5 2.5 5.5 0 5.8.1 5.4 2.2-.3 1.3-.8 4-1.1 6l-.6 3.8h-5.3c-5.2 0-6.6.9-6.6 4.1 0 .5 3.6.9 8.1.9h8.1l-.6 2.7c-.3 1.6-.8 5.2-1.2 8.2l-.6 5.4-5.5-.6-5.6-.6 4.3 2.1c5.4 2.7 8 6.9 8 13.1 0 9.2-4.5 13.8-16 16.5l-7 1.6v5.2c0 8.3-.1 8.4-8.8 8.4h-7.5l.6-16.7c.4-9.1.7-19.3.7-22.5 0-5.6.1-5.9 2.8-6.4 2.4-.5 2.8-1 2.4-3.1-.4-2.2.9-26.4 2.4-43.6l.6-6.7h36.5l-1.1 7.2zM48.4 130.3c2.4 1.6 2.6 2.3 2.6 9.2v7.5l-6.7-.6c-8.4-.7-12.9 1.3-15.6 6.9-4.7 9.6 3.5 20.6 12.7 17.1.9-.3 1.6-1.2 1.6-2 0-1-1.4-1.4-5-1.4h-5v-3.4c0-1.8-.3-4.7-.6-6.3l-.6-3 12.2-.8c6.7-.4 12.3-.5 12.5-.3.3.2 1.1 6.4 2 13.8 1.5 13.3 1.5 13.3-.6 15.6-3.8 4.1-11.6 6.8-19.9 6.8-12.5.1-21.4-5.6-27.7-17.7-2.3-4.4-2.7-6.4-2.7-13.7-.1-7.2.4-9.3 2.6-14 3.9-7.9 8.3-12.2 15.3-14.8 4.6-1.7 19.7-1 22.9 1.1zm224.7-.5l2.7 1.1-1.4 7.8c-2 10.8-1.8 10.3-5.6 9.2-5.2-1.4-15.4-1.1-16.8.6-1.9 2.3-.4 3.2 7.2 3.9 3.9.3 8.6 1.4 10.3 2.4 7.3 4.2 8.4 15.7 2.2 24.9-6.8 10.1-20.8 13.4-34.9 8.4-3.8-1.4-6.8-2.9-6.8-3.5 0-1.4 2.1-13.9 2.6-15.5.3-.9.8-1 1.7-.3 3.8 3 18.6 4.7 20.9 2.4 2.1-2.1-1.1-4.2-6.1-4.2-2.9 0-6.4-.9-9.1-2.3-13.8-7.1-9.2-29 7.5-35.2 4.6-1.7 21.3-1.5 25.6.3zM190 144.1c0 2.6-3.1 39.7-3.6 42.6l-.5 3.3H171l-.1-10.3-.1-10.2-2.7 8c-2.6 7.5-3 8-5.8 8.3-2.9.3-3.1.1-4.9-6.3l-1.9-6.7-.5 7.9-.5 7.8-7.2.3-7.1.3-.7-7.3c-.3-4-.5-14.1-.3-22.3l.3-15 8.6-.3 8.6-.3 2.8 9.6c1.6 5.3 3.1 9.8 3.5 10 .3.2 2.4-4.3 4.5-10.1l4-10.4h9.3c6.2 0 9.2.4 9.2 1.1zm-53.6 4.1c2 7.6-.6 24.7-5 32.9-4 7.2-8 9.3-17.3 9-4.7-.1-11.2-6.9-13.2-13.7-1.4-5-2-27.6-.7-28.9.3-.3 3.7-.3 7.5 0l6.8.7v13.9c0 11.3.3 14.1 1.6 15.4 1.4 1.4 1.7 1.4 2.8.1 2-2.3 3.3-14.4 2.6-23.4l-.6-8.2h7.4c6.9 0 7.5.2 8.1 2.2z"/><path d="M117.7 114c-.3.8-.8 3-1.1 4.7-.5 3-.3 3.3 1.8 3.3 2.3 0 2.4-.2 1.5-3.8-1.5-5.6-1.6-5.8-2.2-4.2zM74.8 141.7c.6.2 1.8.2 2.5 0 .6-.3.1-.5-1.3-.5-1.4 0-1.9.2-1.2.5zM66.3 142.7c.9.2 2.3.2 3 0 .6-.3-.1-.5-1.8-.5-1.6 0-2.2.2-1.2.5zM82.8 142.7c.7.3 1.6.2 1.9-.1.4-.3-.2-.6-1.3-.5-1.1 0-1.4.3-.6.6zM75 159.5c0 5.2.2 5.5 2.4 5.5 5 0 7.5-6 3.8-9.3-1-1-2.8-1.7-4-1.7-2 0-2.2.5-2.2 5.5zM201.3 142.7c.9.2 2.3.2 3 0 .6-.3-.1-.5-1.8-.5-1.6 0-2.2.2-1.2.5zM213.8 142.7c.6.2 1.8.2 2.5 0 .6-.3.1-.5-1.3-.5-1.4 0-1.9.2-1.2.5zM208 160.5c0 4 .2 4.5 2.3 4.5 2.9 0 4.7-1.8 4.7-4.5s-1.8-4.5-4.7-4.5c-2.1 0-2.3.5-2.3 4.5zM237 41.5c0 .5.5 1.7 1 2.5s1 1 1 .5c0-.6-.5-1.7-1-2.5s-1-1.1-1-.5zM239.1 60.6c0 1.1.3 1.4.6.6.3-.7.2-1.6-.1-1.9-.3-.4-.6.2-.5 1.3zM249.2 62c0 1.4.2 1.9.5 1.2.2-.6.2-1.8 0-2.5-.3-.6-.5-.1-.5 1.3zM168.5 71.2c2.2 2.4 4.5 5.3 5.2 6.4.6 1 1.2 1.4 1.2.8.1-1.8-5.6-9.2-8.1-10.5-1.6-.9-1.2.1 1.7 3.3zM231.1 78.6c0 1.1.3 1.4.6.6.3-.7.2-1.6-.1-1.9-.3-.4-.6.2-.5 1.3zM107.7 212.7c-.6 1-3.7 11.4-3.7 12.5 0 1.8 2.8.6 3.8-1.7.7-1.4 2.2-2.9 3.6-3.4 1.4-.6 2.5-2 2.9-3.8.3-1.5.5-2.9.4-2.9-.9-.8-6.6-1.3-7-.7zM117.5 215.7c-.3 1.4-.5 2.7-.3 2.8.6.6 15.2 2.4 15.7 1.9 1.3-1.2-4.2-4.7-9.2-5.9-5.5-1.3-5.5-1.3-6.2 1.2zM162.3 214c-2.8 1.2-2.9 1 .3 9.5 3.2 8.4 3.6 8.9 6.3 8 2.7-.8 2.8-6 .4-13.4-1.7-5.3-2.6-5.8-7-4.1zM123.7 228.2l-2.7 1 5.1 7.3c4.4 6.5 5.3 7.3 7.2 6.5 2.8-1 2.7-5.3-.3-11.5-2.3-4.8-3.8-5.3-9.3-3.3zM176.5 238.2c-2.2.5-13.4 3.6-25 7-18.6 5.4-21.3 6.4-23.7 9.2-1.5 1.7-2.8 3.6-2.8 4.2 0 .6 3.1 3.6 6.9 6.6 5.3 4.2 8.5 6 13.6 7.3 6.4 1.8 6.9 1.8 12 .1 2.9-1 9.7-4.2 15.1-7l9.9-5.2-.1-9.9c0-12.4-.5-13.4-5.9-12.3zm1.2 4.7c-1 3.5-1.5 4-6.3 5.5-2.8.9-10.6 3.8-17.3 6.5-7.7 3.1-12.9 4.7-14.4 4.3-2.5-.6-9.7-5.1-9.7-6.1 0-.4 4.2-1.7 9.3-3.1 5-1.3 15.5-4.3 23.2-6.6 7.7-2.3 14.5-4.3 15.1-4.3.8-.1.8 1 .1 3.8zM166.5 282.7c.8 2.3 2 3.9 3.2 4.1 1.1.2 1.4 0 .7-.5-.6-.4-1.9-2.3-2.8-4.1-2.2-4.3-2.7-4.1-1.1.5z"/></svg>